<svg width="369" height="75" viewBox="0 0 369 75" fill="none" xmlns="http://www.w3.org/2000/svg">
<path d="M2.99643 34.7099C3.17643 28.1499 4.93643 21.9999 7.89643 16.6099L5.16643 15.3799C2.05643 21.1199 0.206432 27.6599 0.0164324 34.6299C-0.463568 52.1199 9.61643 67.4899 24.4564 74.6099L25.9364 72.0099C12.0264 65.4199 2.54643 51.0599 2.99643 34.7099Z" fill="url(#paint0_linear_765_646)"/>
<path d="M10.1965 34.9098C10.3465 29.3398 11.8965 24.1198 14.4865 19.5898L11.6965 18.3298C8.94645 23.2298 7.31645 28.8398 7.14645 34.8298C6.73645 49.5998 15.3665 62.5598 28.0065 68.3998L29.5265 65.7398C17.8365 60.4498 9.82645 48.5298 10.1965 34.9198V34.9098Z" fill="url(#paint1_linear_765_646)"/>
<path d="M17.9864 35.1199C18.1064 30.6099 19.4364 26.4199 21.6264 22.8199L18.9664 21.6199C16.6264 25.5699 15.2264 30.1399 15.0864 35.0499C14.7664 46.7899 21.7764 57.0599 31.9564 61.4599L33.4064 58.9199C24.1264 55.0499 17.6964 45.7599 17.9864 35.1299V35.1199Z" fill="url(#paint2_linear_765_646)"/>
<path d="M96.6364 26.36C97.4764 24.55 97.9364 22.53 97.9364 20.41C97.9364 12.55 91.5664 6.17 83.6964 6.17C80.8364 6.17 78.1864 7.01 75.9564 8.46C72.9364 3.39 67.4064 0 61.0764 0C52.3064 0 45.0564 6.53 43.9164 14.99C43.8664 14.99 43.8064 14.99 43.7564 14.99C32.2364 14.99 22.8964 24.33 22.8964 35.85C22.8964 47.37 32.2364 56.71 43.7564 56.71C49.3764 56.71 54.4764 54.48 58.2264 50.87C61.3764 54.18 65.8364 56.25 70.7664 56.25C74.7264 56.25 78.3764 54.92 81.2864 52.68C84.1364 55.52 88.0664 57.28 92.4064 57.28C101.106 57.28 108.156 50.23 108.156 41.53C108.156 34.29 103.276 28.2 96.6264 26.36H96.6364Z" fill="url(#paint3_linear_765_646)"/>
<path d="M135.766 51.7402V40.8102C134.716 42.5002 132.476 43.6002 129.496 43.6002C123.096 43.6002 118.516 38.5202 118.516 31.7502C118.516 24.9802 122.766 20.0002 129.306 20.0002C133.236 20.0002 135.256 21.8802 135.896 23.1602V20.5502H141.706V51.7402H135.756H135.766ZM130.226 38.1502C133.336 38.1502 135.806 35.7702 135.806 31.7502C135.806 27.7302 133.336 25.4402 130.226 25.4402C127.116 25.4402 124.646 27.7302 124.646 31.7502C124.646 35.7702 127.116 38.1502 130.226 38.1502Z" fill="#EF5935"/>
<path d="M164.396 40.62C163.166 42.72 160.556 43.64 158.176 43.64C152.736 43.64 149.626 39.66 149.626 34.77V20.55H155.706V33.54C155.706 36.06 156.986 38.07 159.826 38.07C162.666 38.07 164.076 36.24 164.076 33.63V20.55H170.156V38.98C170.156 40.72 170.296 42.27 170.386 43.05H164.576C164.486 42.59 164.396 41.54 164.396 40.63V40.62Z" fill="#EF5935"/>
<path d="M200.297 31.8001C200.297 38.7101 195.217 43.7401 188.497 43.7401C181.777 43.7401 176.697 38.7101 176.697 31.8001C176.697 24.8901 181.777 19.8601 188.497 19.8601C195.217 19.8601 200.297 24.8501 200.297 31.8001ZM194.207 31.8001C194.207 27.5501 191.467 25.4001 188.487 25.4001C185.507 25.4001 182.767 27.5501 182.767 31.8001C182.767 36.0501 185.507 38.2001 188.487 38.2001C191.467 38.2001 194.207 36.0501 194.207 31.8001Z" fill="#EF5935"/>
<path d="M214.336 20.5501H218.866V25.9501H214.336V35.3701C214.336 37.3401 215.246 37.9801 216.986 37.9801C217.716 37.9801 218.536 37.8901 218.866 37.8001V42.8301C218.316 43.0601 217.216 43.3801 215.436 43.3801C211.046 43.3801 208.306 40.7701 208.306 36.4301V25.9601H204.236V20.5601H205.376C207.756 20.5601 208.856 19.0101 208.856 16.9901V13.8301H214.346V20.5501H214.336Z" fill="#EF5935"/>
<path d="M245.797 36.6001C244.657 40.4901 241.087 43.7301 235.557 43.7301C229.387 43.7301 223.937 39.2901 223.937 31.7001C223.937 24.5201 229.247 19.8501 235.007 19.8501C241.957 19.8501 246.117 24.2901 246.117 31.5101C246.117 32.3801 246.027 33.2901 246.027 33.3901H229.927C230.067 36.3601 232.577 38.5101 235.597 38.5101C238.437 38.5101 239.987 37.0901 240.717 35.0801L245.797 36.5901V36.6001ZM240.127 29.2401C240.037 27.0001 238.577 24.8001 235.097 24.8001C231.937 24.8001 230.207 27.1801 230.067 29.2401H240.127Z" fill="#EF5935"/>
<path d="M256.046 35.6401C256.186 37.4201 257.506 39.0701 260.166 39.0701C262.176 39.0701 263.136 38.0201 263.136 36.8301C263.136 35.8201 262.446 35.0001 260.716 34.6301L257.746 33.9401C253.406 32.9801 251.436 30.3701 251.436 27.2201C251.436 23.2001 255.006 19.8601 259.856 19.8601C266.256 19.8601 268.406 23.9301 268.686 26.3501L263.606 27.4901C263.426 26.1601 262.466 24.4701 259.906 24.4701C258.306 24.4701 257.026 25.4301 257.026 26.7101C257.026 27.8101 257.846 28.4901 259.086 28.7201L262.286 29.4101C266.726 30.3201 268.966 33.0201 268.966 36.3201C268.966 39.9801 266.126 43.7301 260.226 43.7301C253.456 43.7301 251.126 39.3401 250.846 36.7801L256.056 35.6401H256.046Z" fill="#EF5935"/>
<path d="M282.937 18.0801V20.5501H288.017V25.7601H282.937V43.0501H276.807V25.7601H273.057V20.5501H276.807V17.9901C276.807 12.9101 280.007 9.62012 284.997 9.62012C286.277 9.62012 287.517 9.85012 288.017 10.0801V15.2001C287.697 15.1101 287.107 14.9701 286.097 14.9701C284.727 14.9701 282.937 15.5601 282.937 18.0801Z" fill="#121212"/>
<path d="M315.176 31.8001C315.176 38.7101 310.096 43.7401 303.376 43.7401C296.656 43.7401 291.576 38.7101 291.576 31.8001C291.576 24.8901 296.656 19.8601 303.376 19.8601C310.096 19.8601 315.176 24.8501 315.176 31.8001ZM309.096 31.8001C309.096 27.5501 306.356 25.4001 303.376 25.4001C300.396 25.4001 297.656 27.5501 297.656 31.8001C297.656 36.0501 300.396 38.2001 303.376 38.2001C306.356 38.2001 309.096 36.0501 309.096 31.8001Z" fill="#121212"/>
<path d="M335.537 26.5801C334.847 26.4401 334.257 26.4001 333.707 26.4001C330.597 26.4001 327.897 27.9101 327.897 32.7601V43.0501H321.817V20.5501H327.717V23.8901C329.087 20.9201 332.197 20.3701 334.117 20.3701C334.617 20.3701 335.077 20.4201 335.537 20.4601V26.5901V26.5801Z" fill="#121212"/>
<path d="M344.677 9.39014C346.777 9.39014 348.427 11.0801 348.427 13.1901C348.427 15.3001 346.777 16.8901 344.677 16.8901C342.577 16.8901 340.927 15.2001 340.927 13.1901C340.927 11.1801 342.617 9.39014 344.677 9.39014ZM341.657 43.0501V20.5501H347.737V43.0501H341.657Z" fill="#121212"/>
<path d="M363.567 20.5501H368.097V25.9501H363.567V35.3701C363.567 37.3401 364.477 37.9801 366.217 37.9801C366.947 37.9801 367.767 37.8901 368.097 37.8001V42.8301C367.547 43.0601 366.447 43.3801 364.667 43.3801C360.277 43.3801 357.537 40.7701 357.537 36.4301V25.9601H353.467V20.5601H354.607C356.987 20.5601 358.087 19.0101 358.087 16.9901V13.8301H363.577V20.5501H363.567Z" fill="#121212"/>
<defs>
<linearGradient id="paint0_linear_765_646" x1="58.1264" y1="66.1399" x2="-2.16357" y2="36.6299" gradientUnits="userSpaceOnUse">
<stop stop-color="#E6C241"/>
<stop offset="1" stop-color="#EE3532"/>
</linearGradient>
<linearGradient id="paint1_linear_765_646" x1="59.7365" y1="62.8398" x2="-0.543546" y2="33.3298" gradientUnits="userSpaceOnUse">
<stop stop-color="#E6C241"/>
<stop offset="1" stop-color="#EE3532"/>
</linearGradient>
<linearGradient id="paint2_linear_765_646" x1="61.5364" y1="59.1699" x2="1.24645" y2="29.6499" gradientUnits="userSpaceOnUse">
<stop stop-color="#E6C241"/>
<stop offset="1" stop-color="#EE3532"/>
</linearGradient>
<linearGradient id="paint3_linear_765_646" x1="120.496" y1="28.26" x2="48.4064" y2="28.9" gradientUnits="userSpaceOnUse">
<stop stop-color="#E6C241"/>
<stop offset="1" stop-color="#EE3532"/>
</linearGradient>
</defs>
</svg>
